<?xml version="1.0" encoding="UTF-8" ?>
<!DOCTYPE svg PUBLIC "-//W3C//DTD SVG 1.1//EN" "http://www.w3.org/Graphics/SVG/1.1/DTD/svg11.dtd">
<svg width="276pt" height="67pt" viewBox="0 0 276 67" version="1.1" xmlns="http://www.w3.org/2000/svg">
<g id="#e3001bff">
<path fill="#e3001b" opacity="1.00" d=" M 0.00 0.00 L 276.00 0.00 L 276.00 67.00 L 57.61 67.00 C 57.68 60.15 57.67 53.30 57.61 46.45 C 55.76 46.48 53.91 46.51 52.07 46.54 C 52.22 34.43 52.05 22.32 52.17 10.20 C 40.34 10.18 28.51 10.15 16.68 10.20 C 16.26 22.33 18.23 35.59 11.89 46.57 C 10.16 46.56 8.43 46.57 6.70 46.58 C 6.76 53.38 6.67 60.19 6.78 67.00 L 0.00 67.00 L 0.00 0.00 M 64.40 14.33 C 59.19 19.40 57.25 26.97 57.60 34.06 C 57.70 41.82 60.43 50.51 67.62 54.49 C 74.57 58.22 83.37 58.55 90.55 55.25 C 95.65 52.84 99.20 48.02 100.76 42.69 C 96.67 42.71 92.57 42.69 88.48 42.70 C 85.76 49.46 75.14 49.30 71.62 43.40 C 70.29 41.35 70.24 38.84 69.85 36.51 C 80.32 36.44 90.78 36.47 101.25 36.46 C 101.31 30.60 101.30 24.44 98.56 19.10 C 95.95 13.54 90.13 9.99 84.14 9.27 C 77.31 8.17 69.55 9.38 64.40 14.33 M 104.23 10.16 C 104.17 25.54 104.21 40.91 104.19 56.28 C 108.20 56.32 112.20 56.35 116.21 56.30 C 116.17 49.91 116.21 43.53 116.17 37.15 C 121.91 37.10 127.65 37.13 133.39 37.15 C 133.37 43.53 133.33 49.91 133.38 56.30 C 137.42 56.31 141.46 56.31 145.50 56.29 C 145.48 40.90 145.52 25.51 145.48 10.12 C 141.44 10.22 137.40 10.19 133.36 10.15 C 133.35 15.90 133.37 21.64 133.39 27.38 C 127.65 27.30 121.91 27.38 116.16 27.35 C 116.24 21.62 116.18 15.89 116.21 10.16 C 112.22 10.20 108.22 10.22 104.23 10.16 M 151.47 10.16 C 151.42 25.54 151.47 40.92 151.46 56.30 C 158.28 56.31 165.10 56.30 171.92 56.30 C 177.57 56.23 183.80 55.10 187.78 50.73 C 192.98 44.60 190.78 34.08 183.81 30.22 C 177.74 26.48 170.33 27.45 163.55 27.43 C 163.45 21.67 163.60 15.91 163.56 10.15 C 159.53 10.22 155.50 10.23 151.47 10.16 M 193.54 10.18 C 193.43 25.55 193.56 40.92 193.48 56.29 C 197.50 56.32 201.52 56.36 205.55 56.28 C 205.63 44.10 205.55 31.92 205.59 19.74 C 211.76 19.83 217.93 19.79 224.10 19.79 C 224.15 16.58 224.16 13.38 224.09 10.17 C 213.90 10.19 203.72 10.18 193.54 10.18 M 226.24 10.15 C 226.25 25.52 226.22 40.89 226.23 56.27 C 230.54 56.32 234.86 56.33 239.18 56.28 C 244.92 46.61 250.49 36.83 256.48 27.32 C 256.62 36.98 256.48 46.64 256.51 56.31 C 260.55 56.32 264.60 56.30 268.64 56.33 C 268.69 40.92 268.71 25.51 268.65 10.10 C 264.27 10.26 259.89 10.12 255.51 10.27 C 249.89 19.89 244.30 29.56 238.32 38.95 C 238.32 29.35 238.31 19.74 238.37 10.13 C 234.33 10.16 230.28 10.17 226.24 10.15 Z" />
<path fill="#e3001b" opacity="1.00" d=" M 69.99 28.58 C 70.33 24.15 73.13 19.42 77.93 18.97 C 83.77 17.79 88.63 23.07 88.90 28.60 C 82.60 28.55 76.30 28.64 69.99 28.58 Z" />
<path fill="#e3001b" opacity="1.00" d=" M 27.80 19.80 C 31.92 19.79 36.03 19.78 40.14 19.80 C 40.14 28.67 40.05 37.54 40.18 46.41 C 34.74 46.62 29.29 46.46 23.84 46.51 C 28.71 38.51 27.69 28.75 27.80 19.80 Z" />
<path fill="#e3001b" opacity="1.00" d=" M 163.57 35.64 C 167.04 35.90 170.56 35.41 174.00 35.96 C 177.77 36.87 179.47 41.40 178.08 44.82 C 174.98 49.77 168.32 47.15 163.55 48.05 C 163.50 43.92 163.51 39.78 163.57 35.64 Z" />
<path fill="#e3001b" opacity="1.00" d=" M 17.89 56.27 C 27.42 56.29 36.96 56.41 46.50 56.19 C 46.49 59.79 46.51 63.40 46.55 67.00 L 17.87 67.00 C 17.86 63.42 17.87 59.85 17.89 56.27 Z" />
</g>
<g id="#fcfdfdff">
<path fill="#fcfdfd" opacity="1.00" d=" M 64.40 14.33 C 69.55 9.38 77.31 8.17 84.14 9.27 C 90.13 9.99 95.95 13.54 98.56 19.10 C 101.30 24.44 101.31 30.60 101.25 36.46 C 90.78 36.47 80.32 36.44 69.85 36.51 C 70.24 38.84 70.29 41.35 71.62 43.40 C 75.14 49.30 85.76 49.46 88.48 42.70 C 92.57 42.69 96.67 42.71 100.76 42.69 C 99.20 48.02 95.65 52.84 90.55 55.25 C 83.37 58.55 74.57 58.22 67.62 54.49 C 60.43 50.51 57.70 41.82 57.60 34.06 C 57.25 26.97 59.19 19.40 64.40 14.33 M 69.99 28.58 C 76.30 28.64 82.60 28.55 88.90 28.60 C 88.63 23.07 83.77 17.79 77.93 18.97 C 73.13 19.42 70.33 24.15 69.99 28.58 Z" />
<path fill="#fcfdfd" opacity="1.00" d=" M 16.68 10.20 C 28.51 10.15 40.34 10.18 52.17 10.20 C 52.05 22.32 52.22 34.43 52.07 46.54 C 53.91 46.51 55.76 46.48 57.61 46.45 C 57.67 53.30 57.68 60.15 57.61 67.00 L 46.55 67.00 C 46.51 63.40 46.49 59.79 46.50 56.19 C 36.96 56.41 27.42 56.29 17.89 56.27 C 17.87 59.85 17.86 63.42 17.87 67.00 L 6.78 67.00 C 6.67 60.19 6.76 53.38 6.70 46.58 C 8.43 46.57 10.16 46.56 11.89 46.57 C 18.23 35.59 16.26 22.33 16.68 10.20 M 27.80 19.80 C 27.69 28.75 28.71 38.51 23.84 46.51 C 29.29 46.46 34.74 46.62 40.18 46.41 C 40.05 37.54 40.14 28.67 40.14 19.80 C 36.03 19.78 31.92 19.79 27.80 19.80 Z" />
<path fill="#fcfdfd" opacity="1.00" d=" M 104.23 10.16 C 108.22 10.22 112.22 10.20 116.21 10.16 C 116.18 15.89 116.24 21.62 116.16 27.35 C 121.91 27.38 127.65 27.30 133.39 27.38 C 133.37 21.64 133.35 15.90 133.36 10.15 C 137.40 10.19 141.44 10.22 145.48 10.12 C 145.52 25.51 145.48 40.90 145.50 56.29 C 141.46 56.31 137.42 56.31 133.38 56.30 C 133.33 49.91 133.37 43.53 133.39 37.15 C 127.65 37.13 121.91 37.10 116.17 37.15 C 116.21 43.53 116.17 49.91 116.21 56.30 C 112.20 56.35 108.20 56.32 104.19 56.28 C 104.21 40.91 104.17 25.54 104.23 10.16 Z" />
<path fill="#fcfdfd" opacity="1.00" d=" M 151.47 10.16 C 155.50 10.23 159.53 10.22 163.56 10.15 C 163.60 15.91 163.45 21.67 163.55 27.43 C 170.33 27.45 177.74 26.48 183.81 30.22 C 190.78 34.08 192.98 44.60 187.78 50.73 C 183.80 55.10 177.57 56.23 171.92 56.30 C 165.10 56.30 158.28 56.31 151.46 56.30 C 151.47 40.92 151.42 25.54 151.47 10.16 M 163.57 35.64 C 163.51 39.78 163.50 43.92 163.55 48.05 C 168.32 47.15 174.98 49.77 178.08 44.82 C 179.47 41.40 177.77 36.87 174.00 35.96 C 170.56 35.41 167.04 35.90 163.57 35.64 Z" />
<path fill="#fcfdfd" opacity="1.00" d=" M 193.54 10.18 C 203.72 10.18 213.90 10.19 224.09 10.17 C 224.16 13.38 224.15 16.58 224.10 19.79 C 217.93 19.79 211.76 19.83 205.59 19.74 C 205.55 31.92 205.63 44.10 205.55 56.28 C 201.52 56.36 197.50 56.32 193.48 56.29 C 193.56 40.92 193.43 25.55 193.54 10.18 Z" />
<path fill="#fcfdfd" opacity="1.00" d=" M 226.24 10.15 C 230.28 10.17 234.33 10.16 238.37 10.13 C 238.31 19.74 238.32 29.35 238.32 38.95 C 244.30 29.56 249.89 19.89 255.51 10.27 C 259.89 10.12 264.27 10.26 268.65 10.10 C 268.71 25.51 268.69 40.92 268.64 56.33 C 264.60 56.30 260.55 56.32 256.51 56.31 C 256.48 46.64 256.62 36.98 256.48 27.32 C 250.49 36.83 244.92 46.61 239.18 56.28 C 234.86 56.33 230.54 56.32 226.23 56.27 C 226.22 40.89 226.25 25.52 226.24 10.15 Z" />
</g>
</svg>
