<?xml version="1.0" encoding="UTF-8" ?>
<!DOCTYPE svg PUBLIC "-//W3C//DTD SVG 1.1//EN" "http://www.w3.org/Graphics/SVG/1.1/DTD/svg11.dtd">
<svg width="640pt" height="303pt" viewBox="0 0 640 303" version="1.1" xmlns="http://www.w3.org/2000/svg">
<g id="#00acbcff">
<path fill="#00acbc" opacity="1.00" d=" M 400.47 13.77 C 407.30 8.56 417.94 10.86 426.12 8.03 C 428.57 9.51 431.41 10.84 434.07 8.99 C 438.25 10.04 441.53 12.82 444.98 15.23 C 445.42 14.91 446.30 14.25 446.74 13.93 C 451.12 14.87 456.20 16.93 460.34 14.38 C 465.10 15.16 470.68 14.38 473.67 19.12 C 478.74 17.41 484.39 18.94 489.09 16.04 C 494.42 17.49 500.29 16.01 505.38 18.45 C 511.34 20.75 517.78 17.46 523.73 20.10 C 524.17 20.57 525.05 21.52 525.49 22.00 C 529.55 21.86 533.71 22.42 537.69 21.33 C 538.94 21.94 540.19 22.55 541.45 23.17 C 542.80 18.33 548.68 22.22 551.90 22.92 C 558.21 22.58 564.41 23.56 570.38 25.64 C 575.45 27.99 583.12 25.12 585.33 31.94 C 580.62 34.57 575.69 29.24 570.51 31.07 C 571.72 33.88 575.27 33.90 577.62 35.29 C 575.57 37.02 572.86 37.36 570.39 38.13 C 569.90 39.09 569.42 40.04 568.93 40.99 C 565.55 40.79 562.23 41.33 559.00 42.27 C 559.00 42.94 559.01 44.27 559.01 44.94 C 559.66 44.95 560.98 44.99 561.64 45.01 C 562.74 46.14 563.85 47.26 564.98 48.37 C 565.00 48.95 565.04 50.11 565.05 50.69 C 565.58 51.11 566.62 51.94 567.15 52.36 C 566.86 52.72 566.28 53.43 566.00 53.79 C 566.00 56.00 566.00 58.22 565.97 60.43 C 561.09 58.58 557.77 54.33 553.41 51.62 C 552.58 50.50 551.73 49.40 550.84 48.34 C 551.40 44.69 552.48 41.16 553.18 37.53 C 551.87 38.28 550.58 39.05 549.36 39.91 C 548.86 39.95 547.85 40.04 547.35 40.08 C 546.89 39.56 545.98 38.51 545.52 37.99 C 544.24 38.01 542.96 38.04 541.69 38.06 C 542.11 39.45 542.58 40.83 543.10 42.19 C 542.76 42.68 542.08 43.66 541.74 44.15 C 539.27 44.21 536.87 43.70 534.67 42.58 C 530.61 43.28 526.49 42.98 522.41 42.99 C 521.07 45.86 519.88 48.78 518.83 51.75 C 522.91 53.12 527.41 52.49 531.33 54.39 C 536.68 53.26 539.66 59.96 544.05 62.28 C 544.02 63.65 544.00 65.03 544.00 66.41 C 546.83 67.15 547.95 69.38 545.49 71.45 C 542.27 67.41 539.67 62.84 535.80 59.36 C 536.71 61.34 537.69 63.31 538.65 65.28 C 537.84 70.06 538.25 75.64 533.87 78.87 C 530.91 76.75 528.39 79.20 528.82 82.47 C 528.45 83.46 525.79 85.16 527.73 85.85 C 531.10 87.40 533.67 89.94 534.86 93.49 C 534.59 94.08 534.04 95.27 533.76 95.87 C 530.85 97.15 527.91 97.47 527.58 93.52 C 526.89 92.45 526.21 91.37 525.56 90.28 C 524.44 89.78 523.33 89.27 522.23 88.77 C 522.26 81.21 513.31 89.46 511.80 82.66 C 511.07 84.59 509.66 85.98 507.75 86.73 C 510.74 88.99 514.38 89.30 518.01 89.00 C 518.01 89.67 518.00 91.01 518.00 91.69 C 516.97 92.17 515.96 92.67 514.95 93.18 C 514.98 93.73 515.03 94.83 515.05 95.38 C 519.41 97.91 523.14 101.96 523.88 107.11 C 524.77 114.56 519.62 123.30 511.39 123.21 C 510.95 123.66 510.08 124.57 509.64 125.02 C 508.54 125.01 507.45 125.00 506.37 125.00 C 506.03 125.44 505.35 126.33 505.01 126.77 C 508.41 130.74 502.25 135.65 499.72 130.54 C 500.29 130.05 501.43 129.07 502.00 128.58 C 502.00 128.04 502.00 126.96 502.00 126.42 C 501.49 125.97 500.46 125.07 499.95 124.62 C 498.16 126.42 496.38 128.21 494.61 130.01 C 497.71 133.09 500.75 136.23 503.90 139.27 C 504.55 141.69 505.09 144.16 505.18 146.68 C 501.67 149.08 498.64 152.12 495.01 154.34 C 495.00 153.59 494.98 152.09 494.97 151.34 C 491.52 149.17 488.53 146.39 485.29 143.95 C 484.57 146.02 483.84 148.09 483.04 150.14 C 485.27 154.81 489.13 157.96 492.92 161.30 C 492.70 164.42 494.02 167.24 495.32 169.97 C 494.75 169.98 493.62 169.99 493.05 169.99 C 493.53 171.13 493.98 172.28 494.40 173.44 C 495.11 174.62 495.80 175.82 496.46 177.05 C 496.85 176.68 497.64 175.94 498.03 175.56 C 498.90 176.40 499.78 177.25 500.66 178.10 C 501.05 177.56 501.84 176.49 502.23 175.96 C 503.14 176.42 504.07 176.87 505.00 177.32 C 505.00 178.88 505.00 180.44 505.00 182.00 C 503.80 182.01 502.60 182.01 501.40 182.02 C 500.65 181.25 499.91 180.47 499.17 179.70 C 499.08 181.80 498.71 183.87 497.97 185.84 C 503.83 187.50 510.93 185.23 515.64 189.85 C 516.32 189.91 517.67 190.03 518.34 190.08 C 517.85 191.13 517.36 192.18 516.86 193.22 C 516.44 192.93 515.62 192.33 515.20 192.04 C 508.86 191.18 500.02 192.59 496.38 186.03 C 495.87 186.02 494.87 186.01 494.37 186.00 C 489.74 182.19 486.71 177.13 483.04 172.53 C 483.01 172.00 482.95 170.94 482.92 170.42 C 480.23 167.86 477.64 165.21 475.00 162.62 C 475.00 161.94 474.98 160.58 474.98 159.90 C 476.87 160.41 478.77 160.87 480.72 161.15 C 483.34 163.86 485.94 166.64 489.29 168.48 C 485.53 163.63 485.46 156.83 479.82 153.28 C 482.53 147.56 478.87 141.17 476.79 135.74 C 476.07 136.49 475.37 137.25 474.67 138.00 C 473.54 138.01 472.40 138.02 471.28 138.03 C 470.87 137.52 470.04 136.50 469.63 135.99 C 470.04 135.48 470.84 134.46 471.24 133.95 C 469.93 132.51 468.62 131.07 467.49 129.49 C 466.29 128.63 465.12 127.72 463.97 126.81 C 463.97 126.07 463.95 124.59 463.94 123.85 C 461.14 124.64 458.27 125.11 455.36 125.10 C 450.93 130.20 446.44 135.48 440.85 139.45 C 442.91 144.79 441.11 151.39 436.69 155.05 C 436.07 155.04 434.85 155.02 434.24 155.01 C 433.30 152.81 432.32 150.62 431.65 148.33 C 430.85 147.45 430.05 146.59 429.26 145.72 C 427.18 139.12 422.57 133.15 422.87 125.94 C 420.72 126.96 418.40 127.18 416.30 125.92 C 415.35 121.66 411.06 120.07 408.44 117.02 C 405.12 116.98 401.79 116.90 398.51 117.45 C 394.57 116.90 388.96 117.82 387.40 113.01 C 381.47 116.16 375.32 111.08 372.56 106.02 C 370.54 105.55 370.18 108.15 369.66 109.53 C 370.94 110.49 372.24 111.46 373.55 112.41 C 374.58 114.15 376.28 115.24 377.99 116.23 C 378.01 116.93 378.04 118.33 378.05 119.03 C 379.16 119.00 380.27 118.96 381.39 118.93 C 383.14 117.53 384.99 116.25 386.78 114.88 C 387.54 116.14 388.30 117.41 389.10 118.67 C 392.17 118.99 394.82 120.53 396.04 123.45 C 394.85 125.30 394.13 127.64 392.03 128.67 C 392.03 129.20 392.04 130.26 392.05 130.79 C 389.82 132.48 387.51 134.05 385.50 136.00 C 384.49 136.00 383.49 136.00 382.50 136.00 C 381.21 137.34 379.92 138.67 378.64 140.01 C 377.60 140.01 376.55 140.00 375.51 140.00 C 375.07 140.45 374.18 141.36 373.73 141.82 C 369.69 142.88 365.80 144.44 361.74 145.42 C 362.10 146.98 362.71 149.95 364.92 148.75 C 368.97 147.25 373.42 147.39 377.41 145.78 C 381.26 149.27 376.28 154.25 375.08 158.04 C 372.41 166.23 363.62 169.30 359.04 176.05 C 358.11 177.55 356.51 178.36 355.07 179.28 C 355.05 179.83 355.00 180.92 354.97 181.46 C 353.97 182.73 353.03 184.05 352.11 185.38 C 352.83 186.59 353.52 187.81 354.24 189.02 C 354.01 189.86 353.77 190.70 353.53 191.53 C 353.77 192.58 353.99 193.64 354.21 194.70 C 354.66 195.12 355.56 195.96 356.01 196.39 C 355.53 201.02 357.91 208.07 352.38 210.37 C 348.53 211.80 345.64 214.70 342.87 217.61 C 343.57 220.68 344.16 223.79 344.16 226.95 C 342.23 227.99 340.23 228.89 338.09 229.39 C 337.93 231.29 338.34 233.44 337.03 235.04 C 332.64 240.52 328.41 247.33 321.02 248.88 C 316.34 248.74 311.82 250.02 307.17 250.13 C 306.36 248.73 305.55 247.31 304.74 245.91 C 305.09 245.44 305.81 244.49 306.16 244.02 C 304.45 242.13 303.18 239.90 302.61 237.41 C 298.37 233.68 298.24 227.70 297.90 222.49 C 297.49 222.04 296.66 221.15 296.25 220.71 C 295.71 217.38 293.21 214.96 291.97 211.95 C 291.69 206.79 294.18 202.09 297.14 198.05 C 296.32 196.67 295.53 195.29 294.71 193.92 C 295.00 193.07 295.29 192.23 295.59 191.39 C 294.24 184.93 289.51 180.44 285.91 175.28 C 287.00 172.16 287.50 168.87 288.11 165.63 C 287.18 164.68 286.25 163.73 285.35 162.77 C 283.72 163.12 282.11 163.54 280.60 164.22 C 279.03 162.65 277.75 160.84 276.63 158.94 C 271.60 158.44 267.26 161.23 262.63 162.64 C 257.88 160.78 252.96 163.35 248.26 162.76 C 244.41 159.69 238.33 157.86 237.67 152.30 C 235.73 150.17 233.74 148.04 231.23 146.57 C 230.84 145.78 230.45 144.99 230.06 144.20 C 229.98 137.23 233.81 130.65 230.85 123.62 C 232.52 121.58 234.08 119.44 235.88 117.51 C 235.91 116.97 235.98 115.89 236.02 115.35 C 239.01 111.76 243.02 109.44 246.84 106.88 C 245.83 99.61 253.44 97.99 256.27 92.93 C 255.86 92.45 255.04 91.49 254.63 91.01 C 253.14 91.00 251.65 91.00 250.17 91.00 C 249.94 89.26 249.62 87.53 249.02 85.88 C 251.00 83.01 251.23 79.59 251.00 76.21 C 252.33 75.87 253.66 75.51 254.98 75.11 C 258.37 76.46 262.06 75.88 265.61 76.00 C 266.01 74.60 266.45 73.21 266.94 71.84 C 266.24 70.57 265.55 69.29 264.86 68.01 C 264.20 68.01 262.89 68.00 262.24 68.00 C 261.80 67.45 260.93 66.34 260.49 65.79 C 261.76 63.89 263.70 63.80 265.48 65.03 C 266.30 61.45 271.26 64.11 272.92 60.85 C 268.89 60.96 264.84 61.02 260.96 62.22 C 261.25 59.27 260.68 55.34 264.26 54.16 C 263.30 53.28 262.21 52.54 261.23 51.70 C 260.40 53.75 259.61 55.82 258.80 57.89 C 256.16 58.61 253.47 59.12 250.72 59.15 C 251.13 57.22 251.65 55.31 252.12 53.40 C 253.88 52.35 255.60 51.22 257.38 50.20 C 258.20 50.63 259.30 50.95 260.24 50.66 C 256.63 47.16 261.84 43.12 265.44 42.86 C 266.32 44.29 267.26 45.68 268.23 47.06 C 267.87 47.58 267.13 48.61 266.77 49.13 C 268.44 50.83 270.08 52.56 271.53 54.45 C 274.45 55.42 273.67 57.87 273.26 60.21 C 276.01 58.63 278.94 57.10 280.24 54.00 C 282.23 53.99 284.21 53.99 286.21 53.98 C 285.10 51.16 284.22 47.95 287.23 45.93 C 287.92 45.95 289.31 45.99 290.00 46.01 C 290.01 46.76 290.03 48.26 290.04 49.01 C 290.87 48.99 292.54 48.93 293.37 48.90 C 292.22 46.91 290.96 44.98 289.79 43.00 C 287.11 46.08 283.11 46.90 279.96 43.96 C 279.98 41.69 279.98 39.43 279.98 37.16 C 282.25 35.88 284.57 34.65 286.61 33.00 C 287.64 33.00 288.67 33.00 289.71 33.00 C 291.49 30.64 292.97 27.90 295.67 26.43 C 296.07 25.24 296.51 24.07 297.02 22.92 C 298.19 22.96 299.36 22.99 300.53 23.01 C 300.97 22.53 301.86 21.57 302.30 21.09 C 308.33 19.97 314.44 19.79 320.56 20.00 C 321.03 20.46 321.97 21.40 322.43 21.86 C 328.61 22.99 336.54 22.42 340.67 27.98 C 341.84 27.99 343.02 28.00 344.20 28.00 C 343.81 27.51 343.02 26.51 342.63 26.01 C 343.04 25.50 343.85 24.48 344.26 23.97 C 344.94 23.98 346.31 23.99 346.99 24.00 C 347.02 24.82 347.07 26.47 347.09 27.29 C 350.57 25.51 354.13 23.91 357.97 23.08 C 364.59 25.98 371.44 19.10 378.13 23.14 C 377.66 21.59 377.19 20.04 376.77 18.48 C 377.66 17.66 378.54 16.83 379.43 16.00 C 380.79 16.00 382.16 16.00 383.53 16.00 C 384.26 16.68 385.00 17.36 385.75 18.04 C 387.29 17.01 389.02 16.86 390.75 17.53 C 391.71 17.02 392.66 16.52 393.62 16.00 C 393.84 16.26 394.29 16.79 394.52 17.05 C 395.18 14.35 398.14 13.93 400.47 13.77 M 304.99 40.45 C 305.01 41.06 305.06 42.28 305.09 42.90 C 304.06 43.43 303.03 43.96 302.00 44.48 C 302.01 45.62 302.02 46.76 302.04 47.91 C 299.42 49.52 296.60 50.84 293.56 51.43 C 296.66 53.62 300.18 52.78 303.40 51.40 C 307.44 53.75 308.21 48.84 309.23 45.99 C 310.82 45.99 312.41 46.00 314.00 46.00 L 314.00 45.01 C 312.66 45.01 311.33 45.00 310.00 45.00 C 310.00 44.50 310.00 43.50 310.00 43.00 C 310.75 43.00 312.25 43.00 313.00 43.00 L 313.00 42.05 C 312.35 42.04 311.04 42.01 310.39 42.00 C 309.56 41.18 308.72 40.37 307.89 39.57 C 307.95 37.32 308.06 35.04 308.77 32.88 C 305.78 34.27 298.25 38.40 304.99 40.45 M 338.76 70.43 C 339.22 71.32 339.69 72.21 340.17 73.09 C 338.40 73.91 336.46 74.08 334.54 74.08 C 333.77 72.13 332.10 70.97 330.37 69.95 C 326.41 73.40 324.66 78.23 325.11 83.31 C 327.88 80.30 332.37 80.67 335.90 78.96 C 340.99 79.25 345.63 82.14 351.00 80.99 C 351.00 80.37 351.00 79.14 351.00 78.53 C 347.71 76.48 344.31 74.62 340.85 72.88 C 341.83 71.57 342.75 70.21 343.46 68.73 C 341.87 69.25 340.31 69.84 338.76 70.43 M 362.02 73.17 C 363.74 77.21 366.63 80.51 369.97 83.31 C 365.07 88.13 372.24 90.75 376.53 91.22 C 376.97 90.67 377.84 89.58 378.28 89.03 C 377.17 87.38 376.04 85.73 374.76 84.21 C 375.00 82.73 376.09 81.81 377.25 80.98 C 375.83 81.00 374.40 81.01 372.98 81.01 C 372.99 80.34 373.00 79.01 373.01 78.34 C 371.68 77.84 370.38 77.33 369.06 76.83 C 366.88 73.76 368.87 71.46 372.40 71.54 C 370.30 66.23 364.97 71.23 362.02 73.17 M 293.49 71.68 C 294.83 74.26 296.71 76.49 298.29 78.93 C 298.84 78.95 299.95 78.99 300.50 79.01 C 302.57 80.62 304.71 82.14 306.62 83.94 C 305.66 83.96 303.73 84.00 302.77 84.02 C 303.13 84.42 303.83 85.21 304.19 85.61 C 302.50 87.39 300.65 89.03 299.36 91.14 C 297.10 91.00 294.15 90.68 293.51 88.05 C 295.54 87.99 297.57 87.99 299.61 87.99 C 300.07 87.45 301.00 86.36 301.47 85.82 C 298.33 82.64 293.93 81.33 290.40 78.69 C 289.46 77.31 288.43 76.00 287.32 74.75 C 284.24 76.34 280.86 79.39 277.38 76.97 C 275.54 80.67 271.69 82.49 268.99 85.45 C 268.99 86.50 269.00 87.56 269.00 88.62 C 266.99 89.49 265.04 90.54 263.39 91.99 C 261.59 92.01 259.79 92.01 258.00 92.02 C 258.00 92.51 258.00 93.50 258.00 94.00 C 262.06 94.16 266.49 94.42 269.52 91.17 C 276.08 89.26 282.97 90.06 289.70 90.09 C 290.94 91.26 291.22 93.02 291.88 94.54 C 291.13 95.50 290.15 96.36 289.83 97.58 C 293.56 99.87 299.57 98.03 301.59 102.74 C 304.22 102.98 306.59 104.15 308.94 105.26 C 308.96 103.98 308.98 102.69 309.00 101.41 C 309.81 100.56 310.62 99.71 311.43 98.86 C 317.37 99.19 322.68 102.46 328.54 103.56 C 331.63 101.08 335.19 102.64 338.64 103.03 C 340.41 99.60 343.22 95.62 340.66 91.84 C 335.38 93.34 329.73 92.74 324.35 91.87 C 322.56 89.07 320.47 86.25 320.72 82.72 C 318.88 83.12 317.16 83.89 315.66 85.04 C 317.06 85.93 318.19 87.16 319.19 88.47 C 317.48 89.11 316.19 90.30 315.50 91.99 C 314.92 92.00 313.75 92.03 313.17 92.04 C 311.46 87.77 307.27 84.78 306.68 80.06 C 301.90 77.87 297.78 74.66 293.49 71.68 M 339.81 110.52 C 339.74 114.85 343.79 117.59 344.34 121.75 C 345.54 122.98 346.76 124.19 348.00 125.38 C 348.00 126.76 348.00 128.13 348.00 129.50 C 349.34 130.78 350.68 132.07 352.02 133.35 C 352.01 134.46 351.99 135.58 351.99 136.69 C 355.21 138.96 358.31 141.41 360.85 144.45 C 360.41 142.77 360.03 141.08 359.71 139.38 C 358.20 137.93 356.31 136.49 357.53 134.25 C 355.51 130.98 352.82 128.23 350.00 125.65 C 349.99 124.27 349.99 122.90 349.98 121.52 C 345.66 118.61 345.08 112.22 339.81 110.52 M 336.88 177.97 C 337.61 177.98 339.06 178.02 339.79 178.04 C 340.31 176.30 340.83 174.56 341.28 172.80 C 338.01 172.34 336.36 175.01 336.88 177.97 Z" />
<path fill="#00acbc" opacity="1.00" d=" M 104.00 17.34 C 109.75 13.73 116.00 11.82 122.66 14.13 C 123.11 14.57 124.00 15.46 124.45 15.91 C 126.51 15.97 128.57 16.09 130.61 16.42 C 132.96 15.49 135.40 14.84 137.81 14.10 C 138.18 14.49 138.90 15.28 139.27 15.67 C 136.09 16.89 133.30 19.25 137.20 21.81 C 135.28 22.85 133.36 23.88 131.48 24.98 C 133.16 25.01 134.85 25.00 136.53 25.00 C 137.47 23.99 138.42 22.99 139.37 21.99 C 140.58 21.99 141.79 21.99 143.00 21.99 C 143.00 22.82 143.00 24.48 143.00 25.31 C 143.44 24.94 144.33 24.21 144.77 23.84 C 144.39 22.67 144.03 21.50 143.70 20.32 C 142.15 19.22 140.80 17.88 139.70 16.34 C 145.41 12.95 151.70 16.08 157.24 12.81 C 158.43 13.64 159.81 14.34 160.36 15.78 C 166.32 12.47 173.07 16.23 179.55 14.99 C 180.47 15.88 181.39 16.77 182.33 17.65 C 184.36 18.13 186.26 19.04 188.08 20.06 C 188.04 21.30 188.01 22.54 187.98 23.78 C 189.88 25.40 194.25 25.72 194.00 28.74 C 192.24 30.06 190.21 30.97 188.30 32.05 C 187.39 31.00 186.47 29.96 185.56 28.92 C 185.00 29.47 184.45 30.01 183.89 30.56 C 184.50 31.03 185.71 31.99 186.31 32.47 C 186.35 35.30 184.04 36.57 181.47 36.13 C 179.90 40.19 172.51 36.37 171.42 32.94 C 168.78 32.70 166.14 33.01 163.51 33.04 C 164.18 29.01 168.30 30.02 171.30 29.90 C 173.22 28.00 176.86 27.58 177.32 24.54 C 175.16 25.59 173.16 26.91 171.14 28.18 C 170.62 27.20 170.11 26.22 169.61 25.23 C 171.51 24.47 173.46 23.86 175.46 24.73 C 174.39 23.81 173.32 22.89 172.27 21.96 C 170.46 23.31 168.36 23.07 166.51 21.97 C 164.86 26.90 160.55 29.46 155.65 30.38 C 158.06 31.24 160.05 32.36 158.20 34.92 C 156.49 34.42 154.75 34.06 153.00 33.77 C 153.43 34.84 153.87 35.92 154.29 37.00 C 153.61 37.00 152.23 37.00 151.55 36.99 C 149.80 32.69 146.21 32.91 142.40 34.21 C 141.96 34.62 141.10 35.44 140.67 35.85 C 135.69 36.35 131.10 39.08 127.78 42.76 C 128.30 43.72 128.82 44.69 129.33 45.66 C 131.93 46.82 134.52 48.07 136.69 49.94 C 138.48 49.96 140.27 49.97 142.06 49.95 C 144.03 52.42 142.19 54.96 140.88 57.19 C 141.22 57.64 141.91 58.53 142.26 58.97 C 143.46 58.25 144.68 57.55 145.88 56.83 C 144.55 51.64 150.36 51.57 153.90 50.80 C 158.34 46.43 156.17 39.22 161.27 35.06 C 164.04 35.74 166.86 36.16 169.72 36.00 C 171.79 37.89 174.21 40.24 172.21 43.11 C 173.21 43.45 174.19 43.83 175.20 44.16 C 176.94 42.68 178.82 41.37 180.59 39.93 C 181.39 40.76 182.19 41.57 183.01 42.38 C 183.12 45.76 181.63 51.49 186.84 51.20 C 187.83 52.61 188.79 54.04 189.82 55.41 C 188.93 57.20 188.19 59.06 187.70 61.00 C 187.19 61.00 186.16 61.00 185.65 61.01 C 186.09 61.50 186.96 62.49 187.39 62.98 C 188.07 62.98 189.41 63.00 190.08 63.00 C 190.08 65.42 190.12 67.91 189.10 70.16 C 185.94 67.11 181.14 69.20 177.99 66.80 C 179.06 63.91 181.50 61.91 183.58 59.77 C 180.47 62.05 176.75 62.32 173.05 61.99 C 173.51 63.13 173.95 64.27 174.36 65.43 C 172.28 65.02 170.85 63.44 169.40 62.04 C 168.15 62.02 166.91 62.00 165.67 61.99 C 168.45 63.10 170.37 65.59 167.07 67.65 C 167.05 68.27 167.01 69.50 166.99 70.12 C 169.70 69.99 172.36 69.42 174.99 68.80 C 175.00 69.57 175.02 71.10 175.03 71.86 C 169.97 72.31 163.82 78.28 159.73 73.98 C 157.57 74.68 155.52 75.67 153.35 76.37 C 152.58 77.05 151.80 77.73 151.03 78.41 C 151.02 78.98 151.01 80.12 151.00 80.69 C 148.42 81.44 145.96 82.52 143.41 83.34 C 142.14 84.41 140.86 85.48 139.57 86.52 C 138.62 87.82 137.40 88.85 136.02 89.65 C 136.01 91.04 136.01 92.43 136.01 93.82 C 133.29 95.60 130.64 97.63 127.42 98.40 C 124.88 100.43 122.23 102.33 119.80 104.48 C 120.61 107.68 121.24 110.93 121.10 114.25 C 119.00 114.05 116.96 113.59 114.97 112.93 C 114.99 111.02 115.00 109.10 115.00 107.19 C 111.13 106.87 107.35 105.83 103.44 105.93 C 102.98 106.48 102.06 107.59 101.60 108.14 C 98.69 108.18 95.88 107.44 93.03 107.02 C 90.32 108.33 87.92 110.22 85.16 111.43 C 84.08 115.42 82.46 119.23 81.15 123.14 C 81.63 126.71 83.01 130.71 86.76 131.99 C 88.62 131.02 90.72 130.93 92.78 130.89 C 93.97 128.99 95.19 127.11 96.35 125.20 C 98.00 124.92 99.63 124.54 101.18 123.93 C 101.70 124.28 102.75 124.97 103.27 125.32 C 102.93 127.46 102.41 129.58 101.91 131.69 C 101.51 132.11 100.70 132.95 100.30 133.37 C 99.94 134.59 99.54 135.80 99.12 137.00 C 101.97 137.00 104.83 136.99 107.69 136.98 C 108.50 137.89 109.32 138.81 110.13 139.74 C 108.14 144.04 106.40 150.78 112.36 152.71 C 114.38 151.94 116.44 151.29 118.53 150.71 C 119.00 151.28 119.94 152.43 120.42 153.00 C 121.02 153.00 122.23 153.01 122.83 153.02 C 123.69 151.41 124.52 149.79 125.30 148.14 C 127.10 147.69 128.88 147.18 130.68 146.75 C 131.10 146.31 131.93 145.42 132.34 144.98 C 133.10 144.98 134.62 144.99 135.38 145.00 C 134.98 145.84 134.19 147.53 133.79 148.37 C 136.14 144.30 140.12 146.44 142.66 148.79 C 144.62 148.92 146.57 149.20 148.37 150.03 C 149.05 149.35 149.73 148.67 150.40 147.99 C 150.98 147.98 152.14 147.97 152.71 147.97 C 153.12 148.49 153.94 149.52 154.35 150.04 C 154.75 149.70 155.55 149.01 155.96 148.67 C 156.42 149.96 156.88 151.27 157.31 152.58 C 161.79 153.49 162.84 159.75 167.96 158.94 C 171.84 158.38 174.77 161.13 177.76 163.10 C 178.19 165.53 179.25 167.80 180.98 169.58 C 180.99 170.17 181.01 171.35 181.02 171.94 C 184.00 173.67 187.39 174.39 190.72 175.14 C 191.63 176.05 192.54 176.96 193.45 177.88 C 195.42 177.94 197.42 178.10 199.25 178.94 C 199.68 178.62 200.56 177.97 201.00 177.65 C 203.46 179.05 205.64 180.87 207.52 182.99 C 208.62 182.98 209.71 182.96 210.81 182.95 C 213.56 185.70 215.66 190.28 212.64 193.65 C 209.48 196.91 207.40 200.96 205.05 204.79 C 207.94 211.08 203.54 217.51 201.29 223.27 C 196.97 225.33 191.52 225.48 188.00 229.29 C 188.97 237.86 181.96 244.58 177.60 251.28 C 175.89 250.98 174.20 250.63 172.53 250.19 C 173.32 251.33 174.13 252.45 174.97 253.57 C 174.99 254.58 175.02 255.60 175.05 256.63 C 174.25 257.37 173.46 258.11 172.66 258.85 C 170.42 259.20 168.22 259.78 166.00 260.26 C 166.00 261.40 166.01 262.54 166.02 263.68 C 165.51 264.11 164.50 264.97 164.00 265.40 C 163.50 264.99 162.50 264.18 162.00 263.78 C 162.00 264.32 162.00 265.41 161.99 265.95 C 162.88 265.99 164.65 266.06 165.53 266.09 C 164.74 267.30 163.94 268.50 163.13 269.70 C 163.07 270.61 163.00 271.53 162.93 272.45 C 162.09 273.53 161.29 274.65 160.57 275.82 C 161.33 275.87 162.85 275.97 163.61 276.02 C 164.39 276.77 165.16 277.52 165.95 278.28 C 164.82 280.51 163.92 282.84 162.96 285.15 C 164.37 286.98 165.66 288.90 167.11 290.70 C 169.71 291.15 172.60 292.00 173.50 294.80 C 171.26 294.98 168.98 295.07 166.90 295.98 C 163.47 294.34 159.94 292.89 156.31 291.76 C 154.74 290.29 153.15 288.83 151.41 287.57 C 148.96 284.68 146.25 281.58 146.88 277.48 C 143.30 276.60 145.28 271.94 146.01 269.43 C 145.02 268.94 144.05 268.45 143.08 267.95 C 143.00 263.83 141.94 259.76 140.05 256.10 C 142.15 249.89 140.67 243.18 139.19 236.99 C 138.32 229.45 140.11 221.64 137.81 214.26 C 133.97 209.38 126.32 209.34 123.60 203.39 C 119.75 197.89 117.96 190.67 112.30 186.69 C 110.28 183.83 111.27 181.11 114.09 179.40 C 113.48 178.93 112.26 178.01 111.65 177.54 C 112.93 172.36 116.56 168.25 120.01 164.35 C 121.12 160.82 117.66 149.32 114.51 157.00 C 113.98 157.01 112.92 157.03 112.39 157.04 C 111.93 156.53 111.01 155.51 110.54 155.00 C 109.53 155.00 108.52 155.00 107.51 155.00 C 106.43 152.55 103.96 151.37 101.97 149.79 C 101.97 149.20 101.96 148.00 101.95 147.41 C 100.84 146.36 99.73 145.30 98.63 144.23 C 93.33 143.65 88.59 141.27 85.37 136.97 C 79.97 139.83 73.95 136.16 69.42 133.24 C 68.94 133.15 68.00 132.96 67.53 132.87 C 65.99 131.73 64.37 130.70 62.77 129.68 C 65.47 124.44 61.92 119.95 58.04 116.62 C 58.00 116.09 57.91 115.05 57.87 114.53 C 56.30 112.47 54.81 110.35 53.00 108.49 C 53.00 106.66 52.99 104.82 52.99 102.99 C 52.45 103.00 51.35 103.02 50.81 103.02 C 51.71 109.25 54.63 114.98 56.95 120.78 C 56.61 121.10 55.94 121.75 55.61 122.07 C 54.21 120.72 52.72 119.44 51.00 118.50 C 50.99 117.21 50.99 115.91 50.99 114.62 C 49.50 113.66 48.07 112.63 46.65 111.58 C 47.19 111.14 48.27 110.24 48.81 109.79 C 45.16 106.03 48.52 97.09 42.05 96.82 C 40.39 93.17 41.46 89.06 40.34 85.29 C 42.13 77.22 50.97 72.82 52.11 64.71 C 49.63 63.32 49.51 60.89 51.92 59.35 C 51.97 56.94 51.77 54.45 52.76 52.19 C 51.39 51.80 50.03 51.41 48.67 51.04 C 49.00 50.57 49.68 49.64 50.01 49.17 C 50.00 47.62 50.00 46.06 49.99 44.51 C 49.16 43.69 48.33 42.88 47.51 42.06 C 44.37 42.39 41.35 41.70 38.77 39.86 C 38.07 40.54 37.36 41.22 36.66 41.90 C 27.35 42.98 17.27 44.32 9.01 38.59 C 10.45 34.29 17.71 33.73 22.00 34.00 L 22.00 33.16 C 20.01 33.17 16.36 33.19 16.97 30.23 C 20.41 28.20 25.22 27.04 29.02 28.88 C 28.99 27.28 28.97 25.68 28.95 24.08 C 37.19 21.89 45.50 19.78 54.02 19.07 C 61.98 20.61 70.21 20.51 78.00 22.95 C 83.40 22.37 88.82 21.59 94.23 20.86 C 94.59 20.62 95.30 20.13 95.66 19.88 C 96.10 20.41 96.98 21.47 97.43 22.00 C 101.88 21.65 106.26 22.49 110.63 23.17 C 111.16 21.72 111.70 20.29 112.21 18.85 C 109.51 19.52 106.79 20.12 103.99 20.16 C 103.99 19.46 104.00 18.04 104.00 17.34 M 116.32 68.46 C 119.92 67.53 123.41 68.94 126.99 69.15 C 126.99 68.45 127.00 67.06 127.00 66.36 C 126.57 66.01 125.72 65.31 125.29 64.96 C 122.29 66.11 119.23 67.09 116.32 68.46 M 119.44 75.13 C 118.23 75.86 117.06 77.55 117.36 78.98 C 119.22 79.72 121.28 76.00 119.44 75.13 Z" />
<path fill="#00acbc" opacity="1.00" d=" M 48.38 53.08 C 51.15 52.13 49.93 56.52 47.82 56.09 C 46.08 55.75 47.22 53.42 48.38 53.08 Z" />
<path fill="#00acbc" opacity="1.00" d=" M 546.75 71.88 C 550.00 73.77 553.88 74.24 557.07 76.23 C 557.19 78.42 554.31 78.86 553.04 80.22 C 552.21 79.74 551.38 79.26 550.55 78.79 C 550.31 82.61 547.41 80.32 545.89 78.80 C 546.46 77.77 547.03 76.72 547.60 75.68 C 547.29 74.42 547.01 73.15 546.75 71.88 Z" />
<path fill="#00acbc" opacity="1.00" d=" M 286.17 77.99 C 286.58 77.99 287.39 78.00 287.80 78.00 C 288.21 80.60 288.84 83.15 289.24 85.76 C 287.77 86.27 286.31 86.80 284.84 87.31 C 284.91 84.15 285.62 81.08 286.17 77.99 Z" />
<path fill="#00acbc" opacity="1.00" d=" M 550.99 80.68 C 556.50 82.55 556.54 88.97 557.03 93.81 C 556.90 96.65 553.54 95.97 551.59 96.08 C 550.76 98.55 548.99 99.88 546.72 97.97 C 544.40 99.47 542.57 101.47 541.46 104.02 C 539.48 103.95 538.45 101.75 536.97 100.70 C 536.97 99.56 536.96 98.43 536.96 97.29 C 539.41 94.60 542.56 92.34 546.41 92.86 C 547.30 90.74 549.32 89.64 551.22 88.57 C 551.02 86.28 550.16 84.15 549.02 82.18 C 549.51 81.81 550.50 81.06 550.99 80.68 Z" />
<path fill="#00acbc" opacity="1.00" d=" M 335.18 94.24 C 336.15 93.01 339.00 94.21 337.79 95.77 C 336.80 96.99 333.97 95.81 335.18 94.24 Z" />
<path fill="#00acbc" opacity="1.00" d=" M 441.33 150.95 C 444.84 151.20 446.17 155.70 446.22 158.74 C 444.86 159.23 443.52 159.75 442.17 160.26 C 440.17 157.50 438.93 153.91 441.33 150.95 Z" />
<path fill="#00acbc" opacity="1.00" d=" M 518.61 160.46 C 519.83 158.98 520.15 155.42 522.64 156.05 C 523.98 157.81 525.07 159.91 527.33 160.66 C 526.59 161.70 525.77 162.69 524.94 163.65 C 524.77 166.18 525.58 168.54 526.95 170.64 C 524.99 171.17 523.85 172.67 523.72 174.67 C 523.29 175.13 522.43 176.05 521.99 176.51 C 522.01 177.58 522.03 178.65 522.07 179.73 C 518.23 183.99 511.58 180.47 506.93 179.01 C 506.94 178.37 506.96 177.09 506.97 176.45 C 506.53 176.01 505.65 175.14 505.22 174.71 C 504.83 173.43 504.40 172.18 503.96 170.93 C 504.40 169.95 504.84 168.97 505.28 167.99 C 506.35 167.99 507.42 167.99 508.50 168.00 C 508.96 167.50 509.88 166.50 510.34 166.00 C 510.89 165.98 512.01 165.94 512.56 165.92 C 514.41 163.93 516.36 162.01 518.61 160.46 Z" />
<path fill="#00acbc" opacity="1.00" d=" M 529.00 170.00 C 532.50 170.00 535.99 169.96 539.49 170.04 C 538.24 175.95 532.44 170.40 528.94 172.95 C 528.96 172.21 528.99 170.74 529.00 170.00 Z" />
<path fill="#00acbc" opacity="1.00" d=" M 553.67 176.49 C 553.68 173.69 556.04 172.53 558.56 172.83 C 559.36 173.69 560.17 174.54 561.00 175.39 C 561.00 176.60 561.01 177.80 561.02 179.01 C 561.61 179.00 562.77 178.98 563.36 178.97 C 566.95 172.59 574.31 178.72 579.42 179.53 C 583.98 179.95 585.40 184.68 589.23 186.41 C 588.87 187.16 588.52 187.91 588.17 188.66 C 590.56 190.95 592.86 193.33 595.25 195.63 C 594.75 195.99 593.75 196.69 593.25 197.05 C 591.38 196.19 589.34 195.98 587.32 195.91 C 586.50 192.86 584.38 190.62 581.37 189.69 C 580.52 191.13 579.70 192.59 578.88 194.04 C 577.37 194.02 575.88 194.01 574.39 194.00 C 573.39 192.98 572.39 191.97 571.39 190.96 C 569.53 191.86 567.48 192.08 565.45 192.13 C 566.20 190.82 567.00 189.54 567.88 188.31 C 567.92 187.82 568.00 186.83 568.04 186.34 C 564.47 183.57 560.38 181.75 555.96 180.90 C 555.97 180.27 556.00 179.01 556.01 178.38 C 555.42 177.91 554.25 176.96 553.67 176.49 Z" />
<path fill="#00acbc" opacity="1.00" d=" M 528.17 186.62 C 525.49 182.73 524.77 171.71 531.99 174.66 C 533.81 174.25 535.66 173.99 537.53 173.84 C 536.33 175.17 535.10 176.48 533.88 177.78 C 535.23 179.97 536.22 182.36 536.21 184.98 C 535.43 185.00 533.87 185.04 533.10 185.06 C 532.05 183.18 531.07 181.27 530.07 179.38 C 529.99 181.93 530.49 184.86 528.17 186.62 Z" />
<path fill="#00acbc" opacity="1.00" d=" M 589.37 185.16 C 591.70 183.78 594.40 183.91 597.00 183.94 C 597.00 184.72 597.01 186.28 597.01 187.06 C 594.33 186.98 591.21 187.62 589.37 185.16 Z" />
<path fill="#00acbc" opacity="1.00" d=" M 520.00 191.12 C 522.20 190.99 524.68 189.73 526.57 191.52 C 525.88 192.07 525.20 192.62 524.52 193.17 C 523.00 193.09 521.49 193.02 519.99 192.97 C 519.99 192.51 519.99 191.58 520.00 191.12 Z" />
<path fill="#00acbc" opacity="1.00" d=" M 528.39 191.20 C 529.49 190.64 531.50 190.65 532.04 191.99 C 531.75 193.90 527.79 192.91 528.39 191.20 Z" />
<path fill="#00acbc" opacity="1.00" d=" M 534.67 194.20 C 537.76 192.50 540.92 190.37 544.65 190.97 C 542.25 193.04 539.57 194.73 536.87 196.36 C 536.10 195.66 535.37 194.94 534.67 194.20 Z" />
<path fill="#00acbc" opacity="1.00" d=" M 525.16 194.17 C 527.13 191.55 530.42 193.43 530.37 196.43 C 528.58 195.77 526.85 194.99 525.16 194.17 Z" />
<path fill="#00acbc" opacity="1.00" d=" M 549.92 198.32 C 550.41 197.89 551.39 197.04 551.88 196.61 C 552.00 197.33 552.22 198.76 552.34 199.48 C 555.12 194.43 560.00 200.79 564.32 199.08 C 564.00 201.62 562.69 203.84 561.03 205.73 C 564.01 207.73 566.82 210.94 570.62 211.01 C 573.70 206.91 572.33 200.81 576.28 197.03 C 579.35 196.61 578.91 201.42 579.10 203.55 C 580.03 204.04 580.97 204.54 581.90 205.06 C 582.09 208.30 582.97 211.45 583.17 214.70 C 588.55 217.49 588.80 224.65 593.10 228.71 C 592.37 232.96 592.26 237.69 588.97 240.91 C 586.71 245.00 581.93 246.58 579.54 250.53 C 577.05 252.10 575.56 254.67 573.83 256.96 C 570.42 256.47 567.37 257.98 564.96 260.27 C 564.52 259.96 563.63 259.33 563.18 259.01 C 559.89 259.15 550.88 259.20 553.83 253.96 C 553.08 251.89 552.35 249.81 551.62 247.75 C 550.97 248.50 550.32 249.26 549.68 250.02 C 549.01 250.01 547.67 250.00 546.99 250.00 C 546.99 248.81 546.99 247.62 547.00 246.44 C 546.21 245.70 545.42 244.97 544.65 244.23 C 539.74 241.57 535.08 245.30 530.04 245.27 C 527.51 245.84 525.35 247.44 523.37 249.04 C 517.50 246.12 508.34 255.93 505.79 247.77 C 506.97 246.33 508.03 244.80 509.04 243.25 C 507.85 241.63 507.86 239.75 508.69 237.98 C 507.19 232.66 508.21 226.62 510.72 221.75 C 515.45 218.38 521.29 217.35 526.76 215.73 C 528.80 213.87 530.40 211.60 531.37 209.00 C 532.45 209.00 533.55 208.99 534.65 208.99 C 536.75 204.22 542.21 201.07 546.57 205.17 C 547.79 203.11 549.19 201.17 550.91 199.50 C 550.66 199.20 550.17 198.62 549.92 198.32 Z" />
<path fill="#00acbc" opacity="1.00" d=" M 373.71 199.62 C 376.42 201.09 379.01 207.37 375.13 208.46 C 375.41 212.85 372.59 216.51 371.80 220.70 C 371.40 221.13 370.59 221.98 370.19 222.41 C 370.66 226.91 366.97 230.62 362.46 230.20 C 361.64 229.32 360.81 228.46 359.98 227.60 C 359.66 220.94 362.25 214.79 363.04 208.24 C 368.12 207.82 370.95 203.31 373.71 199.62 Z" />
<path fill="#00acbc" opacity="1.00" d=" M 623.99 249.99 C 624.70 249.99 626.11 250.00 626.81 250.00 C 627.04 252.05 627.55 254.05 628.23 256.00 C 628.92 256.00 630.31 255.99 631.01 255.98 C 631.00 256.64 631.00 257.95 631.00 258.61 C 626.27 260.46 622.92 265.25 617.46 265.23 C 618.28 264.29 619.13 263.37 619.99 262.46 C 619.97 261.35 619.97 260.25 619.97 259.14 C 621.30 258.34 622.65 257.56 624.00 256.78 C 623.99 254.51 623.99 252.25 623.99 249.99 Z" />
<path fill="#00acbc" opacity="1.00" d=" M 558.11 262.97 C 560.86 262.99 563.62 262.99 566.38 263.00 C 565.70 267.03 562.00 269.30 558.30 270.07 C 555.80 268.32 557.35 265.21 558.11 262.97 Z" />
<path fill="#00acbc" opacity="1.00" d=" M 610.81 264.78 C 612.48 263.17 614.78 262.90 617.00 262.80 C 617.00 263.57 617.01 265.12 617.01 265.90 C 614.31 267.30 611.56 268.70 609.50 270.99 C 608.52 271.01 607.54 271.03 606.57 271.05 C 603.93 273.84 600.60 275.85 597.00 277.13 C 596.00 276.63 595.00 276.15 594.00 275.67 C 593.98 275.02 593.94 273.71 593.91 273.05 C 599.34 269.87 606.05 269.13 610.81 264.78 Z" />
</g>
</svg>
