<?xml version="1.0" encoding="UTF-8" ?>
<!DOCTYPE svg PUBLIC "-//W3C//DTD SVG 1.1//EN" "http://www.w3.org/Graphics/SVG/1.1/DTD/svg11.dtd">
<svg width="247pt" height="67pt" viewBox="0 0 247 67" version="1.1" xmlns="http://www.w3.org/2000/svg">
<g id="#e4032fff">
<path fill="#e4032f" opacity="1.00" d=" M 0.00 0.00 L 247.00 0.00 L 247.00 67.00 L 0.00 67.00 L 0.00 0.00 M 53.35 18.27 C 53.30 18.88 53.19 20.10 53.13 20.71 C 49.83 20.73 46.35 20.75 43.36 22.33 C 39.42 24.18 37.46 28.75 37.65 32.93 C 37.67 37.07 37.13 41.68 39.81 45.20 C 42.84 49.35 48.45 49.81 53.18 49.76 C 53.17 51.26 53.16 52.77 53.16 54.27 C 56.14 54.27 59.13 54.28 62.11 54.26 C 62.10 52.75 62.10 51.24 62.11 49.73 C 65.40 49.64 68.89 49.77 71.87 48.11 C 75.62 46.33 77.63 42.05 77.51 38.02 C 77.54 33.43 78.07 28.09 74.64 24.46 C 71.56 21.02 66.62 20.59 62.29 20.78 C 62.18 20.16 61.95 18.94 61.84 18.32 C 59.01 18.37 56.18 18.36 53.35 18.27 M 91.35 18.43 C 88.23 19.03 85.22 20.64 83.15 23.08 C 80.67 26.49 80.86 30.92 80.87 34.93 C 80.99 39.50 80.34 44.39 82.50 48.61 C 85.34 53.01 90.87 54.85 95.92 54.55 C 100.57 54.75 105.52 53.18 108.30 49.24 C 111.51 45.57 110.42 40.44 110.58 36.00 C 110.57 31.39 111.27 25.91 107.46 22.46 C 103.46 17.89 96.91 17.76 91.35 18.43 M 114.59 18.34 C 114.63 30.32 114.58 42.31 114.62 54.29 C 117.66 54.29 120.70 54.28 123.75 54.28 C 123.78 48.42 123.70 42.55 123.69 36.68 C 127.73 42.37 131.45 48.28 135.32 54.09 C 138.86 54.39 142.42 54.32 145.98 54.26 C 141.18 47.92 136.72 41.33 131.89 35.01 C 136.42 29.68 140.41 23.96 144.50 18.30 C 141.04 18.41 137.58 18.42 134.13 18.32 C 130.39 23.26 127.67 28.89 123.69 33.66 C 123.74 28.56 123.70 23.46 123.75 18.35 C 120.70 18.37 117.64 18.37 114.59 18.34 M 146.41 18.48 C 151.27 26.50 154.81 35.23 159.69 43.24 C 158.20 46.94 156.67 50.63 155.01 54.26 C 158.32 54.31 161.63 54.30 164.94 54.22 C 170.22 42.31 175.29 30.32 180.37 18.34 C 177.10 18.37 173.82 18.38 170.55 18.32 C 168.29 23.65 165.96 28.96 164.05 34.42 C 161.55 29.09 159.06 23.75 156.68 18.37 C 153.25 18.32 149.83 18.29 146.41 18.48 M 179.48 28.94 C 179.29 33.65 179.35 38.37 179.45 43.08 C 179.42 47.39 182.51 51.11 186.27 52.89 C 189.95 54.96 194.33 54.66 198.38 54.31 C 203.63 53.22 208.79 49.10 209.10 43.40 C 206.20 43.36 203.31 43.35 200.41 43.33 C 199.35 47.73 193.30 48.07 190.09 45.92 C 188.09 44.67 188.14 42.12 188.13 40.05 C 188.21 36.45 187.91 32.83 188.35 29.25 C 190.01 24.24 199.04 24.06 200.52 29.35 C 203.38 29.37 206.25 29.38 209.11 29.36 C 208.92 25.14 206.00 21.60 202.32 19.78 C 198.63 17.64 194.18 18.11 190.12 18.39 C 185.04 19.45 179.83 23.41 179.48 28.94 Z" />
<path fill="#e4032f" opacity="1.00" d=" M 92.40 26.23 C 95.55 24.60 100.46 25.53 101.69 29.19 C 102.10 33.45 101.85 37.76 101.84 42.04 C 101.96 47.15 94.57 48.86 91.30 45.70 C 88.53 43.24 89.86 39.23 89.56 36.01 C 89.65 32.67 88.65 28.00 92.40 26.23 Z" />
<path fill="#e4032f" opacity="1.00" d=" M 46.76 29.97 C 47.99 27.51 51.03 27.90 53.31 27.65 C 53.38 32.64 53.24 37.64 53.40 42.63 C 51.18 42.40 48.19 43.26 46.80 40.96 C 46.30 37.33 46.30 33.60 46.76 29.97 Z" />
<path fill="#e4032f" opacity="1.00" d=" M 61.87 27.69 C 64.31 27.77 67.57 27.61 68.66 30.35 C 69.38 33.75 69.38 37.39 68.52 40.76 C 67.23 43.21 64.09 42.48 61.82 42.61 C 61.88 37.64 61.83 32.67 61.87 27.69 Z" />
</g>
<g id="#fcfdfcff">
<path fill="#fcfdfc" opacity="1.00" d=" M 53.35 18.27 C 56.18 18.36 59.01 18.37 61.84 18.32 C 61.95 18.94 62.18 20.16 62.29 20.78 C 66.62 20.59 71.56 21.02 74.64 24.46 C 78.07 28.09 77.54 33.43 77.51 38.02 C 77.63 42.05 75.62 46.33 71.87 48.11 C 68.89 49.77 65.40 49.64 62.11 49.73 C 62.10 51.24 62.10 52.75 62.11 54.26 C 59.13 54.28 56.14 54.27 53.16 54.27 C 53.16 52.77 53.17 51.26 53.18 49.76 C 48.45 49.81 42.84 49.35 39.81 45.20 C 37.13 41.68 37.67 37.07 37.65 32.93 C 37.46 28.75 39.42 24.18 43.36 22.33 C 46.35 20.75 49.83 20.73 53.13 20.71 C 53.19 20.10 53.30 18.88 53.35 18.27 M 46.76 29.97 C 46.30 33.60 46.30 37.33 46.80 40.96 C 48.19 43.26 51.18 42.40 53.40 42.63 C 53.24 37.64 53.38 32.64 53.31 27.65 C 51.03 27.90 47.99 27.51 46.76 29.97 M 61.87 27.69 C 61.83 32.67 61.88 37.64 61.82 42.61 C 64.09 42.48 67.23 43.21 68.52 40.76 C 69.38 37.39 69.38 33.75 68.66 30.35 C 67.57 27.61 64.31 27.77 61.87 27.69 Z" />
<path fill="#fcfdfc" opacity="1.00" d=" M 91.35 18.43 C 96.91 17.76 103.46 17.89 107.46 22.46 C 111.27 25.91 110.57 31.39 110.58 36.00 C 110.42 40.44 111.51 45.57 108.30 49.24 C 105.52 53.18 100.57 54.75 95.92 54.55 C 90.87 54.85 85.34 53.01 82.50 48.61 C 80.34 44.39 80.99 39.50 80.87 34.93 C 80.86 30.92 80.67 26.49 83.15 23.08 C 85.22 20.64 88.23 19.03 91.35 18.43 M 92.40 26.23 C 88.65 28.00 89.65 32.67 89.56 36.01 C 89.86 39.23 88.53 43.24 91.30 45.70 C 94.57 48.86 101.96 47.15 101.84 42.04 C 101.85 37.76 102.10 33.45 101.69 29.19 C 100.46 25.53 95.55 24.60 92.40 26.23 Z" />
<path fill="#fcfdfc" opacity="1.00" d=" M 114.59 18.34 C 117.64 18.37 120.70 18.37 123.75 18.35 C 123.70 23.46 123.74 28.56 123.69 33.66 C 127.67 28.89 130.39 23.26 134.13 18.32 C 137.58 18.42 141.04 18.41 144.50 18.30 C 140.41 23.96 136.42 29.68 131.89 35.01 C 136.72 41.33 141.18 47.92 145.98 54.26 C 142.42 54.32 138.86 54.39 135.32 54.09 C 131.45 48.28 127.73 42.37 123.69 36.68 C 123.70 42.55 123.78 48.42 123.75 54.28 C 120.70 54.28 117.66 54.29 114.62 54.29 C 114.58 42.31 114.63 30.32 114.59 18.34 Z" />
<path fill="#fcfdfc" opacity="1.00" d=" M 146.41 18.48 C 149.83 18.29 153.25 18.32 156.68 18.37 C 159.06 23.75 161.55 29.09 164.05 34.42 C 165.96 28.96 168.29 23.65 170.55 18.32 C 173.82 18.38 177.10 18.37 180.37 18.34 C 175.29 30.32 170.22 42.31 164.94 54.22 C 161.63 54.30 158.32 54.31 155.01 54.26 C 156.67 50.63 158.20 46.94 159.69 43.24 C 154.81 35.23 151.27 26.50 146.41 18.48 Z" />
<path fill="#fcfdfc" opacity="1.00" d=" M 179.48 28.94 C 179.83 23.41 185.04 19.45 190.12 18.39 C 194.18 18.11 198.63 17.64 202.32 19.78 C 206.00 21.60 208.92 25.14 209.11 29.36 C 206.25 29.38 203.38 29.37 200.52 29.35 C 199.04 24.06 190.01 24.24 188.35 29.25 C 187.91 32.83 188.21 36.45 188.13 40.05 C 188.14 42.12 188.09 44.67 190.09 45.92 C 193.30 48.07 199.35 47.73 200.41 43.33 C 203.31 43.35 206.20 43.36 209.10 43.40 C 208.79 49.10 203.63 53.22 198.38 54.31 C 194.33 54.66 189.95 54.96 186.27 52.89 C 182.51 51.11 179.42 47.39 179.45 43.08 C 179.35 38.37 179.29 33.65 179.48 28.94 Z" />
</g>
</svg>
