<?xml version="1.0" encoding="UTF-8" ?>
<!DOCTYPE svg PUBLIC "-//W3C//DTD SVG 1.1//EN" "http://www.w3.org/Graphics/SVG/1.1/DTD/svg11.dtd">
<svg width="202pt" height="69pt" viewBox="0 0 202 69" version="1.1" xmlns="http://www.w3.org/2000/svg">
<g id="#1a4b76ff">
<path fill="#1a4b76" opacity="1.00" d=" M 0.00 0.00 L 202.00 0.00 L 202.00 69.00 L 0.00 69.00 L 0.00 0.00 M 98.11 20.49 C 99.77 21.41 102.57 21.71 102.61 24.16 C 103.49 35.45 102.80 46.78 102.80 58.09 C 108.97 59.06 115.64 60.49 121.57 57.72 C 131.09 53.41 132.95 38.56 125.15 31.82 C 121.38 28.53 115.83 29.00 111.56 30.97 C 111.55 26.50 111.53 22.02 111.74 17.55 C 107.20 18.56 102.46 18.75 98.11 20.49 M 17.30 18.55 C 17.04 18.89 16.52 19.58 16.27 19.92 C 18.68 20.24 21.85 20.82 22.19 23.80 C 23.17 30.47 22.76 37.26 22.76 43.98 C 22.55 48.04 23.20 52.48 20.78 56.02 C 18.98 56.40 17.23 57.00 15.75 58.13 C 23.36 59.03 31.06 58.27 38.71 58.54 C 38.61 58.14 38.42 57.34 38.32 56.94 C 36.28 56.48 33.53 56.36 32.96 53.87 C 31.85 49.20 32.29 44.35 32.09 39.59 C 34.06 39.71 36.05 39.67 38.00 40.02 C 40.66 41.08 40.41 44.93 43.18 45.89 C 43.13 41.36 43.59 36.75 42.97 32.27 L 41.98 30.96 C 40.86 33.08 40.40 36.05 37.93 37.08 C 36.00 37.40 34.04 37.38 32.10 37.47 C 32.10 32.11 32.21 26.75 32.38 21.39 C 35.67 21.50 39.06 20.98 42.27 21.82 C 46.07 23.28 47.59 27.33 49.12 30.75 C 49.45 30.42 50.13 29.77 50.46 29.44 C 51.20 25.83 50.52 22.07 50.62 18.40 C 39.51 18.59 28.39 18.18 17.30 18.55 M 56.44 29.70 C 45.51 32.75 43.18 48.59 51.01 55.94 C 57.87 61.91 70.40 59.98 74.32 51.47 C 76.99 45.58 76.44 37.88 72.00 32.97 C 68.06 28.85 61.69 28.45 56.44 29.70 M 75.35 32.11 C 77.06 33.09 80.05 33.33 79.93 35.95 C 80.41 41.93 80.42 48.01 79.86 53.99 C 79.64 56.39 76.64 56.72 75.33 58.37 C 81.72 58.61 88.13 58.65 94.52 58.35 C 93.29 56.11 89.20 57.23 89.12 54.16 C 88.23 48.67 88.80 43.08 88.61 37.54 C 91.54 35.77 94.98 36.24 97.99 37.56 C 98.88 34.83 99.94 32.17 100.95 29.49 C 95.90 27.52 90.91 30.73 88.66 35.23 C 88.73 33.16 88.79 31.09 88.82 29.02 C 84.35 30.11 79.62 30.27 75.35 32.11 M 141.10 30.12 C 131.65 33.85 129.45 47.69 136.21 54.87 C 141.47 60.51 151.09 60.78 156.93 55.90 C 157.99 55.12 158.57 54.06 158.68 52.72 C 154.80 54.92 149.63 56.05 145.69 53.38 C 142.15 51.14 141.34 46.69 141.14 42.83 C 147.14 42.83 153.13 42.83 159.13 42.82 C 158.85 39.37 158.50 35.64 156.11 32.91 C 152.61 28.45 146.03 28.35 141.10 30.12 M 168.43 29.68 C 164.38 30.78 160.97 34.63 161.48 39.00 C 161.50 42.63 164.67 45.27 167.86 46.35 C 170.47 47.60 174.10 48.10 175.38 51.04 C 176.39 54.61 172.27 57.42 169.05 56.37 C 165.03 55.50 163.60 51.26 161.81 48.10 C 160.04 51.07 161.14 54.60 161.26 57.83 C 166.93 59.21 173.27 60.46 178.73 57.69 C 183.01 55.54 185.14 49.63 182.57 45.45 C 179.55 40.96 173.23 41.18 169.69 37.35 C 168.00 34.46 170.70 30.54 174.02 31.29 C 177.88 31.53 179.37 35.63 180.82 38.58 C 181.17 38.48 181.88 38.26 182.23 38.16 C 182.11 35.55 181.93 32.94 181.74 30.34 C 177.43 29.16 172.81 28.57 168.43 29.68 Z" />
<path fill="#1a4b76" opacity="1.00" d=" M 59.38 31.39 C 62.17 29.93 64.78 32.95 65.54 35.39 C 67.25 41.03 67.14 47.22 65.84 52.93 C 65.36 56.01 61.42 58.96 58.80 56.17 C 55.27 52.07 55.50 46.14 55.64 41.04 C 56.03 37.70 56.06 33.26 59.38 31.39 Z" />
<path fill="#1a4b76" opacity="1.00" d=" M 141.05 40.66 C 141.84 37.21 142.09 32.26 146.11 30.96 C 150.37 31.70 149.60 37.28 150.44 40.43 C 147.31 40.56 144.18 40.63 141.05 40.66 Z" />
<path fill="#1a4b76" opacity="1.00" d=" M 111.62 32.73 C 114.51 32.21 117.94 32.86 119.19 35.86 C 121.82 41.60 121.33 48.75 118.28 54.24 C 117.08 56.80 114.18 57.21 111.66 57.20 C 111.57 49.04 111.29 40.88 111.62 32.73 Z" />
</g>
<g id="#fcfdfbff">
<path fill="#fcfdfb" opacity="1.00" d=" M 98.11 20.49 C 102.46 18.75 107.20 18.56 111.74 17.55 C 111.53 22.02 111.55 26.50 111.56 30.97 C 115.83 29.00 121.38 28.53 125.15 31.82 C 132.95 38.56 131.09 53.41 121.57 57.72 C 115.64 60.49 108.97 59.06 102.80 58.09 C 102.80 46.78 103.49 35.45 102.61 24.16 C 102.57 21.71 99.77 21.41 98.11 20.49 M 111.62 32.73 C 111.29 40.88 111.57 49.04 111.66 57.20 C 114.18 57.21 117.08 56.80 118.28 54.24 C 121.33 48.75 121.82 41.60 119.19 35.86 C 117.94 32.86 114.51 32.21 111.62 32.73 Z" />
<path fill="#fcfdfb" opacity="1.00" d=" M 17.30 18.55 C 28.39 18.18 39.51 18.59 50.62 18.40 C 50.52 22.07 51.20 25.83 50.46 29.44 C 50.13 29.77 49.45 30.42 49.12 30.75 C 47.59 27.33 46.07 23.28 42.27 21.82 C 39.06 20.98 35.67 21.50 32.38 21.39 C 32.21 26.75 32.10 32.11 32.10 37.47 C 34.04 37.38 36.00 37.40 37.93 37.08 C 40.40 36.05 40.86 33.08 41.98 30.96 L 42.97 32.27 C 43.59 36.75 43.13 41.36 43.18 45.89 C 40.41 44.93 40.66 41.08 38.00 40.02 C 36.05 39.67 34.06 39.71 32.09 39.59 C 32.29 44.35 31.85 49.20 32.96 53.87 C 33.53 56.36 36.28 56.48 38.32 56.94 C 38.42 57.34 38.61 58.14 38.71 58.54 C 31.06 58.27 23.36 59.03 15.75 58.13 C 17.23 57.00 18.98 56.40 20.78 56.02 C 23.20 52.48 22.55 48.04 22.76 43.98 C 22.76 37.26 23.17 30.47 22.19 23.80 C 21.85 20.82 18.68 20.24 16.27 19.92 C 16.52 19.58 17.04 18.89 17.30 18.55 Z" />
<path fill="#fcfdfb" opacity="1.00" d=" M 56.44 29.70 C 61.69 28.45 68.06 28.85 72.00 32.97 C 76.44 37.88 76.99 45.58 74.32 51.47 C 70.40 59.98 57.87 61.91 51.01 55.94 C 43.18 48.59 45.51 32.75 56.44 29.70 M 59.38 31.39 C 56.06 33.26 56.03 37.70 55.64 41.04 C 55.50 46.14 55.27 52.07 58.80 56.17 C 61.42 58.96 65.36 56.01 65.84 52.93 C 67.14 47.22 67.25 41.03 65.54 35.39 C 64.78 32.95 62.17 29.93 59.38 31.39 Z" />
<path fill="#fcfdfb" opacity="1.00" d=" M 75.35 32.11 C 79.62 30.27 84.35 30.11 88.82 29.02 C 88.79 31.09 88.73 33.16 88.66 35.23 C 90.91 30.73 95.90 27.52 100.95 29.49 C 99.94 32.17 98.88 34.83 97.99 37.56 C 94.98 36.24 91.54 35.77 88.61 37.54 C 88.80 43.08 88.23 48.67 89.12 54.16 C 89.20 57.23 93.29 56.11 94.52 58.35 C 88.13 58.65 81.72 58.61 75.33 58.37 C 76.64 56.72 79.64 56.39 79.86 53.99 C 80.42 48.01 80.41 41.93 79.93 35.95 C 80.05 33.33 77.06 33.09 75.35 32.11 Z" />
<path fill="#fcfdfb" opacity="1.00" d=" M 141.10 30.12 C 146.03 28.35 152.61 28.45 156.11 32.91 C 158.50 35.64 158.85 39.37 159.13 42.82 C 153.13 42.83 147.14 42.83 141.14 42.83 C 141.34 46.69 142.15 51.14 145.69 53.38 C 149.63 56.05 154.80 54.92 158.68 52.72 C 158.57 54.06 157.99 55.12 156.93 55.90 C 151.09 60.78 141.47 60.51 136.21 54.87 C 129.45 47.69 131.65 33.85 141.10 30.12 M 141.05 40.66 C 144.18 40.63 147.31 40.56 150.44 40.43 C 149.60 37.28 150.37 31.70 146.11 30.96 C 142.09 32.26 141.84 37.21 141.05 40.66 Z" />
<path fill="#fcfdfb" opacity="1.00" d=" M 168.43 29.68 C 172.81 28.57 177.43 29.16 181.74 30.34 C 181.93 32.94 182.11 35.55 182.23 38.16 C 181.88 38.26 181.17 38.48 180.82 38.58 C 179.37 35.63 177.88 31.53 174.02 31.29 C 170.70 30.54 168.00 34.46 169.69 37.35 C 173.23 41.18 179.55 40.96 182.57 45.45 C 185.14 49.63 183.01 55.54 178.73 57.69 C 173.27 60.46 166.93 59.21 161.26 57.83 C 161.14 54.60 160.04 51.07 161.81 48.10 C 163.60 51.26 165.03 55.50 169.05 56.37 C 172.27 57.42 176.39 54.61 175.38 51.04 C 174.10 48.10 170.47 47.60 167.86 46.35 C 164.67 45.27 161.50 42.63 161.48 39.00 C 160.97 34.63 164.38 30.78 168.43 29.68 Z" />
</g>
</svg>
